<svg width="24" height="25" viewBox="0 0 24 25" fill="none" xmlns="http://www.w3.org/2000/svg">
<path fill-rule="evenodd" clip-rule="evenodd" d="M8.02 13.5498C8.124 16.1648 8.63 18.4828 9.383 20.1118C7.97266 19.6226 6.72711 18.7489 5.78691 17.5895C4.8467 16.43 4.24926 15.0308 4.062 13.5498H8.02ZM10.021 13.5498C10.114 15.6998 10.501 17.5598 11.028 18.8778C11.335 19.6438 11.649 20.1278 11.896 20.3898C11.936 20.4328 11.971 20.4658 12 20.4898C12.029 20.4658 12.063 20.4328 12.104 20.3898C12.351 20.1288 12.665 19.6438 12.972 18.8778C13.499 17.5588 13.886 15.6998 13.979 13.5498H10.021ZM13.979 11.5498H10.02C10.113 9.3998 10.5 7.5398 11.027 6.2218C11.334 5.4558 11.648 4.9718 11.895 4.7098C11.935 4.6668 11.97 4.6348 11.999 4.6098C12.028 4.6348 12.062 4.6668 12.103 4.7098C12.35 4.9708 12.664 5.4558 12.971 6.2218C13.498 7.5408 13.885 9.3998 13.978 11.5498H13.979ZM15.98 13.5498C15.876 16.1648 15.37 18.4828 14.617 20.1118C16.0273 19.6226 17.2729 18.7489 18.2131 17.5895C19.1533 16.43 19.7507 15.0308 19.938 13.5498H15.98ZM19.938 11.5498C19.7508 10.0689 19.1535 8.66984 18.2135 7.51036C17.2735 6.35089 16.0282 5.47718 14.618 4.9878C15.37 6.61681 15.875 8.9348 15.98 11.5498H19.938ZM8.02 11.5498H4.062C4.24918 10.0689 4.84647 8.66984 5.78649 7.51036C6.72651 6.35089 7.97185 5.47718 9.382 4.9878C8.63 6.61681 8.125 8.9348 8.02 11.5498ZM22 12.5498C22 7.0268 17.523 2.5498 12 2.5498C6.477 2.5498 2 7.0268 2 12.5498C2 18.0728 6.477 22.5498 12 22.5498C17.523 22.5498 22 18.0728 22 12.5498Z" fill="#6B6B81"/>
</svg>
