<svg width="24" height="25" viewBox="0 0 24 25" fill="none" xmlns="http://www.w3.org/2000/svg">
<path d="M21.944 8.4268C21.896 7.3618 21.724 6.6328 21.48 5.9968C21.2299 5.32973 20.8367 4.72556 20.328 4.2268C19.829 3.71862 19.2254 3.32518 18.559 3.0738C17.923 2.8258 17.195 2.6578 16.131 2.6098C15.063 2.5618 14.722 2.5498 12.01 2.5498C9.29302 2.5498 8.95302 2.5618 7.89002 2.6098C6.82502 2.6578 6.09702 2.8298 5.46002 3.0738C4.80002 3.3308 4.24002 3.6708 3.68802 4.2268C3.18018 4.72626 2.78709 5.33023 2.53602 5.9968C2.29202 6.6328 2.12002 7.3618 2.07202 8.4268C2.02402 9.4958 2.01202 9.8358 2.01202 12.5498C2.01202 15.2678 2.02402 15.6078 2.07202 16.6728C2.12002 17.7378 2.29202 18.4668 2.53602 19.1028C2.78611 19.7699 3.17933 20.374 3.68802 20.8728C4.24002 21.4288 4.80102 21.7728 5.45702 22.0258C6.09302 22.2738 6.82102 22.4418 7.88502 22.4898C8.95302 22.5378 9.29302 22.5498 12.006 22.5498C14.722 22.5498 15.063 22.5378 16.126 22.4898C17.191 22.4418 17.919 22.2698 18.556 22.0258C19.2225 21.7753 19.826 21.3817 20.324 20.8728C20.8319 20.3733 21.225 19.7694 21.476 19.1028C21.724 18.4668 21.892 17.7378 21.94 16.6728C21.988 15.6038 22 15.2638 22 12.5498C22 9.8358 21.992 9.4918 21.944 8.4268ZM20.148 16.5928C20.104 17.5698 19.94 18.1028 19.804 18.4508C19.624 18.9148 19.404 19.2508 19.051 19.6038C18.7265 19.9355 18.3333 20.1922 17.899 20.3558C17.547 20.4918 17.015 20.6558 16.043 20.7008C14.991 20.7488 14.675 20.7608 12.002 20.7608C9.32902 20.7608 9.01302 20.7488 7.96202 20.7008C6.98502 20.6568 6.45202 20.4918 6.10502 20.3558C5.64102 20.1758 5.30502 19.9558 4.95302 19.6038C4.62075 19.2788 4.36372 18.8849 4.20002 18.4498C4.06402 18.0968 3.90002 17.5648 3.85602 16.5918C3.80802 15.5388 3.79602 15.2228 3.79602 12.5488C3.79602 9.8748 3.80802 9.5588 3.85602 8.5058C3.90002 7.5288 4.06402 6.9958 4.20002 6.6478C4.38002 6.1838 4.60002 5.8478 4.95302 5.4948C5.27755 5.16308 5.67075 4.90641 6.10502 4.7428C6.45702 4.6068 6.98902 4.4428 7.96102 4.3978C9.01302 4.3498 9.32902 4.3378 12.002 4.3378C14.674 4.3378 14.991 4.3498 16.042 4.3978C17.019 4.4428 17.552 4.6068 17.899 4.7428C18.363 4.9228 18.699 5.1428 19.051 5.4948C19.404 5.8478 19.616 6.1798 19.804 6.6478C19.94 7.0008 20.104 7.5328 20.148 8.5058C20.196 9.5588 20.208 9.8748 20.208 12.5488C20.208 15.2228 20.192 15.5398 20.148 16.5928Z" fill="url(#paint0_linear_3_1521)"/>
<path d="M12.002 7.40967C11.3271 7.40967 10.6589 7.54264 10.0355 7.80099C9.41201 8.05933 8.84558 8.43799 8.36852 8.91532C7.89147 9.39265 7.51314 9.95931 7.25516 10.5829C6.99718 11.2065 6.8646 11.8748 6.86499 12.5497C6.86499 13.9121 7.40621 15.2187 8.36958 16.1821C9.33296 17.1454 10.6396 17.6867 12.002 17.6867C13.3644 17.6867 14.671 17.1454 15.6344 16.1821C16.5978 15.2187 17.139 13.9121 17.139 12.5497C17.1398 11.8747 17.0075 11.2062 16.7496 10.5824C16.4918 9.95866 16.1135 9.39185 15.6363 8.91444C15.1592 8.43703 14.5926 8.05839 13.969 7.80018C13.3454 7.54198 12.677 7.40927 12.002 7.40967ZM12.002 15.8847C11.1175 15.8847 10.2692 15.5333 9.64379 14.9079C9.01836 14.2824 8.66699 13.4342 8.66699 12.5497C8.66699 11.6652 9.01836 10.8169 9.64379 10.1915C10.2692 9.56603 11.1175 9.21467 12.002 9.21467C12.8865 9.21467 13.7348 9.56603 14.3602 10.1915C14.9856 10.8169 15.337 11.6652 15.337 12.5497C15.337 13.4342 14.9856 14.2824 14.3602 14.9079C13.7348 15.5333 12.8865 15.8847 12.002 15.8847Z" fill="url(#paint1_linear_3_1521)"/>
<path d="M17.34 8.40977C17.4976 8.40963 17.6536 8.37847 17.7991 8.31804C17.9447 8.25761 18.0769 8.16911 18.1882 8.05759C18.2996 7.94606 18.3878 7.8137 18.448 7.66806C18.5082 7.52242 18.5391 7.36635 18.539 7.20877C18.5389 7.05118 18.5077 6.89516 18.4473 6.74962C18.3868 6.60408 18.2983 6.47187 18.1868 6.36053C18.0753 6.24919 17.9429 6.16091 17.7973 6.10073C17.6516 6.04054 17.4956 6.00963 17.338 6.00977C17.0197 6.0099 16.7146 6.13645 16.4896 6.36159C16.2647 6.58673 16.1384 6.89201 16.1385 7.21027C16.1386 7.52853 16.2652 7.8337 16.4903 8.05865C16.7155 8.2836 17.0217 8.4099 17.34 8.40977Z" fill="#BC30A0"/>
<path d="M2 12.5498C2 15.2678 2.012 15.6078 2.06 16.6728C2.108 17.7378 2.28 18.4668 2.524 19.1028C2.77409 19.7699 3.16731 20.374 3.676 20.8728C4.228 21.4248 4.789 21.7728 5.445 22.0258C6.081 22.2738 6.809 22.4418 7.873 22.4898C8.941 22.5378 9.281 22.5498 11.994 22.5498C14.71 22.5498 15.051 22.5378 16.114 22.4898C17.179 22.4418 17.907 22.2698 18.544 22.0258C19.2105 21.7753 19.814 21.3817 20.312 20.8728C20.864 20.3198 21.212 19.7598 21.464 19.1028C21.712 18.4668 21.88 17.7378 21.928 16.6728C21.976 15.6038 21.988 15.2638 21.988 12.5498C21.988 9.8318 21.976 9.4918 21.928 8.4268C21.88 7.3618 21.708 6.6328 21.464 5.9968C21.2139 5.32973 20.8207 4.72556 20.312 4.2268C19.8169 3.71577 19.2139 3.32184 18.547 3.0738C17.911 2.8258 17.183 2.6578 16.119 2.6098C15.05 2.5618 14.71 2.5498 11.998 2.5498C9.281 2.5498 8.941 2.5618 7.878 2.6098C6.813 2.6578 6.085 2.8298 5.448 3.0738C4.78149 3.32433 4.178 3.71789 3.68 4.2268C3.17216 4.72626 2.77907 5.33023 2.528 5.9968C2.28 6.6328 2.108 7.3618 2.06 8.4268C2.012 9.4918 2 9.8318 2 12.5498ZM3.804 12.5498C3.804 9.8798 3.816 9.5598 3.864 8.5068C3.908 7.5298 4.072 6.9968 4.208 6.6488C4.388 6.1848 4.608 5.8488 4.961 5.4958C5.28553 5.16408 5.67873 4.90741 6.113 4.7438C6.465 4.6078 6.997 4.4438 7.969 4.3988C9.021 4.3508 9.337 4.3388 12.01 4.3388C14.682 4.3388 14.999 4.3508 16.05 4.3988C17.027 4.4438 17.56 4.6078 17.907 4.7438C18.371 4.9238 18.707 5.1438 19.059 5.4958C19.411 5.8488 19.623 6.1808 19.812 6.6488C19.948 7.0018 20.112 7.5338 20.156 8.5068C20.204 9.5598 20.216 9.8758 20.216 12.5498C20.216 15.2238 20.204 15.5398 20.156 16.5928C20.112 17.5698 19.948 18.1028 19.812 18.4508C19.632 18.9148 19.412 19.2508 19.059 19.6038C18.7345 19.9355 18.3413 20.1922 17.907 20.3558C17.555 20.4918 17.023 20.6558 16.051 20.7008C14.999 20.7488 14.683 20.7608 12.01 20.7608C9.337 20.7608 9.021 20.7488 7.97 20.7008C6.993 20.6568 6.46 20.4918 6.113 20.3558C5.649 20.1758 5.313 19.9558 4.961 19.6038C4.62885 19.279 4.37183 18.8855 4.208 18.4508C4.072 18.0978 3.908 17.5658 3.864 16.5928C3.812 15.5398 3.804 15.2198 3.804 12.5498Z" fill="url(#paint2_linear_3_1521)"/>
<defs>
<linearGradient id="paint0_linear_3_1521" x1="18.913" y1="4.0788" x2="4.44402" y2="21.8058" gradientUnits="userSpaceOnUse">
<stop stop-color="#AE3DAE"/>
<stop offset="0.047" stop-color="#B23BA6"/>
<stop offset="0.122" stop-color="#BD368E"/>
<stop offset="0.215" stop-color="#CE2E69"/>
<stop offset="0.322" stop-color="#E62335"/>
<stop offset="0.418" stop-color="#FF1800"/>
</linearGradient>
<linearGradient id="paint1_linear_3_1521" x1="14.452" y1="8.42667" x2="9.19599" y2="17.2587" gradientUnits="userSpaceOnUse">
<stop stop-color="#E12F6A"/>
<stop offset="0.171" stop-color="#EA3751"/>
<stop offset="0.356" stop-color="#F13D3E"/>
<stop offset="0.547" stop-color="#F64133"/>
<stop offset="0.747" stop-color="#F7422F"/>
<stop offset="0.795" stop-color="#F74C2F"/>
<stop offset="0.874" stop-color="#F7652F"/>
<stop offset="0.976" stop-color="#F78F2E"/>
<stop offset="1" stop-color="#F79A2E"/>
</linearGradient>
<linearGradient id="paint2_linear_3_1521" x1="16.532" y1="1.72681" x2="7.678" y2="22.8298" gradientUnits="userSpaceOnUse">
<stop offset="0.234" stop-color="#9E35A5" stop-opacity="0"/>
<stop offset="0.451" stop-color="#D42F7F" stop-opacity="0.5"/>
<stop offset="0.752" stop-color="#F7772E"/>
<stop offset="0.962" stop-color="#FEF780"/>
</linearGradient>
</defs>
</svg>
