<svg width="24" height="25" viewBox="0 0 24 25" fill="none" xmlns="http://www.w3.org/2000/svg">
<path d="M21.584 7.73597C21.4696 7.31225 21.246 6.92598 20.9356 6.61573C20.6252 6.30548 20.2388 6.08212 19.815 5.96797C18.255 5.54297 12 5.54297 12 5.54297C12 5.54297 5.744 5.54297 4.186 5.96197C3.7615 6.07642 3.37462 6.30063 3.06427 6.61204C2.75391 6.92345 2.53102 7.31109 2.418 7.73597C2 9.29597 2 12.55 2 12.55C2 12.55 2 15.805 2.418 17.364C2.53203 17.7877 2.75536 18.174 3.06564 18.4843C3.37592 18.7946 3.76227 19.0179 4.186 19.132C5.746 19.551 12 19.551 12 19.551C12 19.551 18.256 19.551 19.815 19.132C20.2386 19.0178 20.6249 18.7944 20.9351 18.4841C21.2454 18.1739 21.4688 17.7876 21.583 17.364C22 15.805 22 12.55 22 12.55C22 12.55 21.995 9.29497 21.584 7.73597Z" fill="#FF0000"/>
<path d="M10 15.5498L15.197 12.5498L10 9.5498V15.5498Z" fill="white"/>
</svg>
