<svg width="24" height="25" viewBox="0 0 24 25" fill="none" xmlns="http://www.w3.org/2000/svg">
<mask id="mask0_3_1513" style="mask-type:luminance" maskUnits="userSpaceOnUse" x="2" y="2" width="20" height="21">
<path d="M22 2.5498H2V22.5498H22V2.5498Z" fill="white"/>
</mask>
<g mask="url(#mask0_3_1513)">
<path d="M22 12.5498C22 7.0268 17.523 2.5498 12 2.5498C6.477 2.5498 2 7.0268 2 12.5498C2 17.5408 5.657 21.6778 10.438 22.4278V15.4408H7.898V12.5498H10.438V10.3468C10.438 7.8408 11.93 6.4568 14.215 6.4568C15.308 6.4568 16.453 6.6518 16.453 6.6518V9.1118H15.193C13.95 9.1118 13.563 9.8828 13.563 10.6748V12.5498H16.336L15.893 15.4398H13.563V22.4278C18.343 21.6778 22 17.5408 22 12.5498Z" fill="#1877F2"/>
<path d="M15.893 15.4396L16.336 12.5496H13.563V10.6746C13.563 9.88457 13.95 9.11157 15.193 9.11157H16.453V6.65157C16.453 6.65157 15.309 6.45557 14.215 6.45557C11.931 6.45557 10.438 7.84057 10.438 10.3456V12.5496H7.89801V15.4396H10.438V22.4276C11.473 22.5906 12.528 22.5906 13.562 22.4276V15.4406H15.892L15.893 15.4396Z" fill="white"/>
</g>
</svg>
