<svg width="24" height="25" viewBox="0 0 24 25" fill="none" xmlns="http://www.w3.org/2000/svg">
<path d="M5 12.5498C5 12.2846 4.89464 12.0302 4.70711 11.8427C4.51957 11.6552 4.26522 11.5498 4 11.5498H3C2.73478 11.5498 2.48043 11.6552 2.29289 11.8427C2.10536 12.0302 2 12.2846 2 12.5498C2 12.815 2.10536 13.0694 2.29289 13.2569C2.48043 13.4444 2.73478 13.5498 3 13.5498H4C4.26522 13.5498 4.51957 13.4444 4.70711 13.2569C4.89464 13.0694 5 12.815 5 12.5498ZM5.64 17.5498L4.93 18.2598C4.74375 18.4472 4.63921 18.7006 4.63921 18.9648C4.63921 19.229 4.74375 19.4824 4.93 19.6698C5.11736 19.8561 5.37081 19.9606 5.635 19.9606C5.89919 19.9606 6.15264 19.8561 6.34 19.6698L7.05 18.9598C7.21383 18.7685 7.29943 18.5224 7.28971 18.2708C7.27999 18.0191 7.17566 17.7803 6.99756 17.6022C6.81947 17.4241 6.58073 17.3198 6.32905 17.3101C6.07738 17.3004 5.8313 17.386 5.64 17.5498ZM12 5.5498C12.2652 5.5498 12.5196 5.44445 12.7071 5.25691C12.8946 5.06937 13 4.81502 13 4.5498V3.5498C13 3.28459 12.8946 3.03023 12.7071 2.8427C12.5196 2.65516 12.2652 2.5498 12 2.5498C11.7348 2.5498 11.4804 2.65516 11.2929 2.8427C11.1054 3.03023 11 3.28459 11 3.5498V4.5498C11 4.81502 11.1054 5.06937 11.2929 5.25691C11.4804 5.44445 11.7348 5.5498 12 5.5498ZM17.66 7.8898C17.9223 7.8887 18.1737 7.78455 18.36 7.5998L19.07 6.8898C19.1747 6.80016 19.2597 6.68984 19.3197 6.56577C19.3797 6.44171 19.4135 6.30658 19.4188 6.16886C19.4241 6.03114 19.4009 5.89381 19.3506 5.76548C19.3004 5.63716 19.2241 5.52061 19.1266 5.42315C19.0292 5.3257 18.9126 5.24944 18.7843 5.19917C18.656 5.14889 18.5187 5.12569 18.3809 5.13101C18.2432 5.13633 18.1081 5.17006 17.984 5.23008C17.86 5.2901 17.7496 5.37512 17.66 5.4798L17 6.1898C16.8137 6.37717 16.7092 6.63062 16.7092 6.8948C16.7092 7.15899 16.8137 7.41244 17 7.5998C17.1763 7.77517 17.4116 7.87856 17.66 7.8898ZM5.66 7.5998C5.84736 7.78606 6.10081 7.8906 6.365 7.8906C6.62919 7.8906 6.88264 7.78606 7.07 7.5998C7.25625 7.41244 7.36079 7.15899 7.36079 6.8948C7.36079 6.63062 7.25625 6.37717 7.07 6.1898L6.36 5.4798C6.17302 5.29017 5.91837 5.18259 5.65207 5.18071C5.38577 5.17884 5.12963 5.28283 4.94 5.4698C4.75037 5.65678 4.64278 5.91143 4.64091 6.17773C4.63903 6.44404 4.74302 6.70018 4.93 6.8898L5.66 7.5998ZM21 11.5498H20C19.7348 11.5498 19.4804 11.6552 19.2929 11.8427C19.1054 12.0302 19 12.2846 19 12.5498C19 12.815 19.1054 13.0694 19.2929 13.2569C19.4804 13.4444 19.7348 13.5498 20 13.5498H21C21.2652 13.5498 21.5196 13.4444 21.7071 13.2569C21.8946 13.0694 22 12.815 22 12.5498C22 12.2846 21.8946 12.0302 21.7071 11.8427C21.5196 11.6552 21.2652 11.5498 21 11.5498ZM18.36 17.5498C18.17 17.4441 17.9508 17.4032 17.7355 17.4333C17.5202 17.4634 17.3205 17.5629 17.1668 17.7166C17.0131 17.8703 16.9136 18.07 16.8835 18.2853C16.8534 18.5006 16.8943 18.7198 17 18.9098L17.71 19.6198C17.8974 19.8061 18.1508 19.9106 18.415 19.9106C18.6792 19.9106 18.9326 19.8061 19.12 19.6198C19.3063 19.4324 19.4108 19.179 19.4108 18.9148C19.4108 18.6506 19.3063 18.3972 19.12 18.2098L18.36 17.5498ZM12 7.0498C10.9122 7.0498 9.84883 7.37237 8.94436 7.97672C8.03989 8.58107 7.33494 9.44005 6.91866 10.445C6.50238 11.45 6.39346 12.5559 6.60568 13.6228C6.8179 14.6897 7.34172 15.6697 8.11091 16.4389C8.8801 17.2081 9.86011 17.7319 10.927 17.9441C11.9939 18.1563 13.0998 18.0474 14.1048 17.6311C15.1098 17.2149 15.9687 16.5099 16.5731 15.6054C17.1774 14.701 17.5 13.6376 17.5 12.5498C17.4974 11.0919 16.917 9.69451 15.8862 8.66364C14.8553 7.63276 13.4579 7.05245 12 7.0498ZM12 16.0498C11.5404 16.0498 11.0852 15.9593 10.6606 15.7834C10.236 15.6075 9.85013 15.3497 9.52513 15.0247C9.20012 14.6997 8.94231 14.3138 8.76642 13.8892C8.59053 13.4646 8.5 13.0094 8.5 12.5498C8.5 12.0902 8.59053 11.6351 8.76642 11.2104C8.94231 10.7858 9.20012 10.3999 9.52513 10.0749C9.85013 9.74993 10.236 9.49212 10.6606 9.31623C11.0852 9.14033 11.5404 9.0498 12 9.0498C12.9283 9.0498 13.8185 9.41855 14.4749 10.0749C15.1313 10.7313 15.5 11.6215 15.5 12.5498C15.5 13.4781 15.1313 14.3683 14.4749 15.0247C13.8185 15.6811 12.9283 16.0498 12 16.0498ZM12 19.5498C11.7348 19.5498 11.4804 19.6552 11.2929 19.8427C11.1054 20.0302 11 20.2846 11 20.5498V21.5498C11 21.815 11.1054 22.0694 11.2929 22.2569C11.4804 22.4444 11.7348 22.5498 12 22.5498C12.2652 22.5498 12.5196 22.4444 12.7071 22.2569C12.8946 22.0694 13 21.815 13 21.5498V20.5498C13 20.2846 12.8946 20.0302 12.7071 19.8427C12.5196 19.6552 12.2652 19.5498 12 19.5498Z" fill="#6B6B81"/>
</svg>
