<svg width="96" height="97" viewBox="0 0 96 97" fill="none" xmlns="http://www.w3.org/2000/svg">
<rect y="0.549805" width="96" height="96" rx="4" fill="white"/>
<path d="M8 8.5498H88V88.5498H8V8.5498Z" fill="white"/>
<path d="M8 8.5498H23.1351V10.712H8V8.5498ZM25.2973 8.5498H31.7838V10.712H25.2973V8.5498ZM33.9459 8.5498H36.1081V10.712H33.9459V8.5498ZM40.4324 8.5498H42.5946V10.712H40.4324V8.5498ZM49.0811 8.5498H51.2432V10.712H49.0811V8.5498ZM53.4054 8.5498H55.5676V10.712H53.4054V8.5498ZM57.7297 8.5498H59.8919V10.712H57.7297V8.5498ZM68.5405 8.5498H70.7027V10.712H68.5405V8.5498ZM72.8649 8.5498H88V10.712H72.8649V8.5498ZM8 10.712H10.1622V12.8741H8V10.712ZM20.973 10.712H23.1351V12.8741H20.973V10.712ZM31.7838 10.712H33.9459V12.8741H31.7838V10.712ZM36.1081 10.712H38.2703V12.8741H36.1081V10.712ZM44.7568 10.712H46.9189V12.8741H44.7568V10.712ZM49.0811 10.712H51.2432V12.8741H49.0811V10.712ZM53.4054 10.712H57.7297V12.8741H53.4054V10.712ZM64.2162 10.712H66.3784V12.8741H64.2162V10.712ZM72.8649 10.712H75.027V12.8741H72.8649V10.712ZM85.8378 10.712H88V12.8741H85.8378V10.712ZM8 12.8741H10.1622V15.0363H8V12.8741ZM12.3243 12.8741H18.8108V15.0363H12.3243V12.8741ZM20.973 12.8741H23.1351V15.0363H20.973V12.8741ZM27.4595 12.8741H31.7838V15.0363H27.4595V12.8741ZM38.2703 12.8741H40.4324V15.0363H38.2703V12.8741ZM44.7568 12.8741H46.9189V15.0363H44.7568V12.8741ZM49.0811 12.8741H51.2432V15.0363H49.0811V12.8741ZM53.4054 12.8741H55.5676V15.0363H53.4054V12.8741ZM57.7297 12.8741H62.0541V15.0363H57.7297V12.8741ZM68.5405 12.8741H70.7027V15.0363H68.5405V12.8741ZM72.8649 12.8741H75.027V15.0363H72.8649V12.8741ZM77.1892 12.8741H83.6757V15.0363H77.1892V12.8741ZM85.8378 12.8741H88V15.0363H85.8378V12.8741ZM8 15.0363H10.1622V17.1985H8V15.0363ZM12.3243 15.0363H18.8108V17.1985H12.3243V15.0363ZM20.973 15.0363H23.1351V17.1985H20.973V15.0363ZM25.2973 15.0363H27.4595V17.1985H25.2973V15.0363ZM29.6216 15.0363H33.9459V17.1985H29.6216V15.0363ZM42.5946 15.0363H44.7568V17.1985H42.5946V15.0363ZM46.9189 15.0363H49.0811V17.1985H46.9189V15.0363ZM51.2432 15.0363H53.4054V17.1985H51.2432V15.0363ZM59.8919 15.0363H64.2162V17.1985H59.8919V15.0363ZM68.5405 15.0363H70.7027V17.1985H68.5405V15.0363ZM72.8649 15.0363H75.027V17.1985H72.8649V15.0363ZM77.1892 15.0363H83.6757V17.1985H77.1892V15.0363ZM85.8378 15.0363H88V17.1985H85.8378V15.0363ZM8 17.1985H10.1622V19.3606H8V17.1985ZM12.3243 17.1985H18.8108V19.3606H12.3243V17.1985ZM20.973 17.1985H23.1351V19.3606H20.973V17.1985ZM25.2973 17.1985H27.4595V19.3606H25.2973V17.1985ZM29.6216 17.1985H38.2703V19.3606H29.6216V17.1985ZM42.5946 17.1985H46.9189V19.3606H42.5946V17.1985ZM57.7297 17.1985H62.0541V19.3606H57.7297V17.1985ZM64.2162 17.1985H70.7027V19.3606H64.2162V17.1985ZM72.8649 17.1985H75.027V19.3606H72.8649V17.1985ZM77.1892 17.1985H83.6757V19.3606H77.1892V17.1985ZM85.8378 17.1985H88V19.3606H85.8378V17.1985ZM8 19.3606H10.1622V21.5228H8V19.3606ZM20.973 19.3606H23.1351V21.5228H20.973V19.3606ZM25.2973 19.3606H27.4595V21.5228H25.2973V19.3606ZM29.6216 19.3606H31.7838V21.5228H29.6216V19.3606ZM33.9459 19.3606H36.1081V21.5228H33.9459V19.3606ZM38.2703 19.3606H46.9189V21.5228H38.2703V19.3606ZM49.0811 19.3606H51.2432V21.5228H49.0811V19.3606ZM59.8919 19.3606H62.0541V21.5228H59.8919V19.3606ZM72.8649 19.3606H75.027V21.5228H72.8649V19.3606ZM85.8378 19.3606H88V21.5228H85.8378V19.3606ZM8 21.5228H23.1351V23.6849H8V21.5228ZM25.2973 21.5228H27.4595V23.6849H25.2973V21.5228ZM29.6216 21.5228H31.7838V23.6849H29.6216V21.5228ZM33.9459 21.5228H36.1081V23.6849H33.9459V21.5228ZM38.2703 21.5228H40.4324V23.6849H38.2703V21.5228ZM42.5946 21.5228H44.7568V23.6849H42.5946V21.5228ZM46.9189 21.5228H49.0811V23.6849H46.9189V21.5228ZM51.2432 21.5228H53.4054V23.6849H51.2432V21.5228ZM55.5676 21.5228H57.7297V23.6849H55.5676V21.5228ZM59.8919 21.5228H62.0541V23.6849H59.8919V21.5228ZM64.2162 21.5228H66.3784V23.6849H64.2162V21.5228ZM68.5405 21.5228H70.7027V23.6849H68.5405V21.5228ZM72.8649 21.5228H88V23.6849H72.8649V21.5228ZM25.2973 23.6849H33.9459V25.8471H25.2973V23.6849ZM42.5946 23.6849H49.0811V25.8471H42.5946V23.6849ZM53.4054 23.6849H55.5676V25.8471H53.4054V23.6849ZM59.8919 23.6849H62.0541V25.8471H59.8919V23.6849ZM64.2162 23.6849H68.5405V25.8471H64.2162V23.6849ZM8 25.8471H10.1622V28.0093H8V25.8471ZM16.6486 25.8471H18.8108V28.0093H16.6486V25.8471ZM20.973 25.8471H29.6216V28.0093H20.973V25.8471ZM33.9459 25.8471H36.1081V28.0093H33.9459V25.8471ZM38.2703 25.8471H40.4324V28.0093H38.2703V25.8471ZM44.7568 25.8471H46.9189V28.0093H44.7568V25.8471ZM49.0811 25.8471H51.2432V28.0093H49.0811V25.8471ZM53.4054 25.8471H59.8919V28.0093H53.4054V25.8471ZM70.7027 25.8471H81.5135V28.0093H70.7027V25.8471ZM85.8378 25.8471H88V28.0093H85.8378V25.8471ZM8 28.0093H10.1622V30.1714H8V28.0093ZM14.4865 28.0093H18.8108V30.1714H14.4865V28.0093ZM23.1351 28.0093H25.2973V30.1714H23.1351V28.0093ZM29.6216 28.0093H31.7838V30.1714H29.6216V28.0093ZM36.1081 28.0093H40.4324V30.1714H36.1081V28.0093ZM42.5946 28.0093H44.7568V30.1714H42.5946V28.0093ZM46.9189 28.0093H49.0811V30.1714H46.9189V28.0093ZM57.7297 28.0093H62.0541V30.1714H57.7297V28.0093ZM64.2162 28.0093H72.8649V30.1714H64.2162V28.0093ZM75.027 28.0093H79.3513V30.1714H75.027V28.0093ZM83.6757 28.0093H85.8378V30.1714H83.6757V28.0093ZM10.1622 30.1714H14.4865V32.3336H10.1622V30.1714ZM16.6486 30.1714H23.1351V32.3336H16.6486V30.1714ZM25.2973 30.1714H36.1081V32.3336H25.2973V30.1714ZM42.5946 30.1714H46.9189V32.3336H42.5946V30.1714ZM51.2432 30.1714H59.8919V32.3336H51.2432V30.1714ZM62.0541 30.1714H75.027V32.3336H62.0541V30.1714ZM77.1892 30.1714H79.3513V32.3336H77.1892V30.1714ZM81.5135 30.1714H83.6757V32.3336H81.5135V30.1714ZM10.1622 32.3336H12.3243V34.4958H10.1622V32.3336ZM14.4865 32.3336H16.6486V34.4958H14.4865V32.3336ZM18.8108 32.3336H20.973V34.4958H18.8108V32.3336ZM31.7838 32.3336H33.9459V34.4958H31.7838V32.3336ZM36.1081 32.3336H40.4324V34.4958H36.1081V32.3336ZM44.7568 32.3336H49.0811V34.4958H44.7568V32.3336ZM51.2432 32.3336H55.5676V34.4958H51.2432V32.3336ZM57.7297 32.3336H59.8919V34.4958H57.7297V32.3336ZM66.3784 32.3336H68.5405V34.4958H66.3784V32.3336ZM70.7027 32.3336H79.3513V34.4958H70.7027V32.3336ZM81.5135 32.3336H85.8378V34.4958H81.5135V32.3336ZM12.3243 34.4958H16.6486V36.6579H12.3243V34.4958ZM18.8108 34.4958H23.1351V36.6579H18.8108V34.4958ZM25.2973 34.4958H27.4595V36.6579H25.2973V34.4958ZM29.6216 34.4958H33.9459V36.6579H29.6216V34.4958ZM40.4324 34.4958H42.5946V36.6579H40.4324V34.4958ZM44.7568 34.4958H51.2432V36.6579H44.7568V34.4958ZM53.4054 34.4958H57.7297V36.6579H53.4054V34.4958ZM59.8919 34.4958H62.0541V36.6579H59.8919V34.4958ZM70.7027 34.4958H77.1892V36.6579H70.7027V34.4958ZM81.5135 34.4958H88V36.6579H81.5135V34.4958ZM8 36.6579H12.3243V38.8201H8V36.6579ZM16.6486 36.6579H18.8108V38.8201H16.6486V36.6579ZM25.2973 36.6579H31.7838V38.8201H25.2973V36.6579ZM36.1081 36.6579H44.7568V38.8201H36.1081V36.6579ZM51.2432 36.6579H55.5676V38.8201H51.2432V36.6579ZM57.7297 36.6579H59.8919V38.8201H57.7297V36.6579ZM62.0541 36.6579H64.2162V38.8201H62.0541V36.6579ZM66.3784 36.6579H70.7027V38.8201H66.3784V36.6579ZM77.1892 36.6579H81.5135V38.8201H77.1892V36.6579ZM8 38.8201H16.6486V40.9822H8V38.8201ZM20.973 38.8201H27.4595V40.9822H20.973V38.8201ZM33.9459 38.8201H44.7568V40.9822H33.9459V38.8201ZM46.9189 38.8201H49.0811V40.9822H46.9189V38.8201ZM51.2432 38.8201H55.5676V40.9822H51.2432V38.8201ZM57.7297 38.8201H62.0541V40.9822H57.7297V38.8201ZM66.3784 38.8201H68.5405V40.9822H66.3784V38.8201ZM72.8649 38.8201H83.6757V40.9822H72.8649V38.8201ZM10.1622 40.9822H12.3243V43.1444H10.1622V40.9822ZM14.4865 40.9822H20.973V43.1444H14.4865V40.9822ZM25.2973 40.9822H29.6216V43.1444H25.2973V40.9822ZM38.2703 40.9822H42.5946V43.1444H38.2703V40.9822ZM44.7568 40.9822H46.9189V43.1444H44.7568V40.9822ZM49.0811 40.9822H59.8919V43.1444H49.0811V40.9822ZM64.2162 40.9822H70.7027V43.1444H64.2162V40.9822ZM75.027 40.9822H79.3513V43.1444H75.027V40.9822ZM81.5135 40.9822H83.6757V43.1444H81.5135V40.9822ZM85.8378 40.9822H88V43.1444H85.8378V40.9822ZM12.3243 43.1444H14.4865V45.3066H12.3243V43.1444ZM18.8108 43.1444H23.1351V45.3066H18.8108V43.1444ZM25.2973 43.1444H33.9459V45.3066H25.2973V43.1444ZM36.1081 43.1444H40.4324V45.3066H36.1081V43.1444ZM44.7568 43.1444H46.9189V45.3066H44.7568V43.1444ZM49.0811 43.1444H59.8919V45.3066H49.0811V43.1444ZM70.7027 43.1444H77.1892V45.3066H70.7027V43.1444ZM79.3513 43.1444H83.6757V45.3066H79.3513V43.1444ZM85.8378 43.1444H88V45.3066H85.8378V43.1444ZM16.6486 45.3066H18.8108V47.4687H16.6486V45.3066ZM23.1351 45.3066H27.4595V47.4687H23.1351V45.3066ZM36.1081 45.3066H40.4324V47.4687H36.1081V45.3066ZM46.9189 45.3066H49.0811V47.4687H46.9189V45.3066ZM57.7297 45.3066H59.8919V47.4687H57.7297V45.3066ZM62.0541 45.3066H72.8649V47.4687H62.0541V45.3066ZM77.1892 45.3066H85.8378V47.4687H77.1892V45.3066ZM12.3243 47.4687H14.4865V49.6309H12.3243V47.4687ZM20.973 47.4687H25.2973V49.6309H20.973V47.4687ZM33.9459 47.4687H36.1081V49.6309H33.9459V47.4687ZM40.4324 47.4687H44.7568V49.6309H40.4324V47.4687ZM51.2432 47.4687H55.5676V49.6309H51.2432V47.4687ZM57.7297 47.4687H64.2162V49.6309H57.7297V47.4687ZM66.3784 47.4687H68.5405V49.6309H66.3784V47.4687ZM70.7027 47.4687H72.8649V49.6309H70.7027V47.4687ZM75.027 47.4687H79.3513V49.6309H75.027V47.4687ZM81.5135 47.4687H83.6757V49.6309H81.5135V47.4687ZM8 49.6309H14.4865V51.793H8V49.6309ZM29.6216 49.6309H40.4324V51.793H29.6216V49.6309ZM42.5946 49.6309H62.0541V51.793H42.5946V49.6309ZM64.2162 49.6309H70.7027V51.793H64.2162V49.6309ZM75.027 49.6309H77.1892V51.793H75.027V49.6309ZM81.5135 49.6309H85.8378V51.793H81.5135V49.6309ZM10.1622 51.793H12.3243V53.9552H10.1622V51.793ZM14.4865 51.793H25.2973V53.9552H14.4865V51.793ZM27.4595 51.793H33.9459V53.9552H27.4595V51.793ZM44.7568 51.793H46.9189V53.9552H44.7568V51.793ZM49.0811 51.793H51.2432V53.9552H49.0811V51.793ZM53.4054 51.793H57.7297V53.9552H53.4054V51.793ZM59.8919 51.793H62.0541V53.9552H59.8919V51.793ZM70.7027 51.793H77.1892V53.9552H70.7027V51.793ZM79.3513 51.793H83.6757V53.9552H79.3513V51.793ZM8 53.9552H12.3243V56.1174H8V53.9552ZM14.4865 53.9552H16.6486V56.1174H14.4865V53.9552ZM25.2973 53.9552H29.6216V56.1174H25.2973V53.9552ZM40.4324 53.9552H46.9189V56.1174H40.4324V53.9552ZM53.4054 53.9552H55.5676V56.1174H53.4054V53.9552ZM57.7297 53.9552H59.8919V56.1174H57.7297V53.9552ZM62.0541 53.9552H64.2162V56.1174H62.0541V53.9552ZM66.3784 53.9552H72.8649V56.1174H66.3784V53.9552ZM75.027 53.9552H79.3513V56.1174H75.027V53.9552ZM8 56.1174H10.1622V58.2795H8V56.1174ZM12.3243 56.1174H16.6486V58.2795H12.3243V56.1174ZM20.973 56.1174H27.4595V58.2795H20.973V56.1174ZM29.6216 56.1174H36.1081V58.2795H29.6216V56.1174ZM38.2703 56.1174H42.5946V58.2795H38.2703V56.1174ZM46.9189 56.1174H49.0811V58.2795H46.9189V56.1174ZM51.2432 56.1174H55.5676V58.2795H51.2432V56.1174ZM57.7297 56.1174H62.0541V58.2795H57.7297V56.1174ZM64.2162 56.1174H72.8649V58.2795H64.2162V56.1174ZM75.027 56.1174H83.6757V58.2795H75.027V56.1174ZM10.1622 58.2795H14.4865V60.4417H10.1622V58.2795ZM18.8108 58.2795H20.973V60.4417H18.8108V58.2795ZM23.1351 58.2795H25.2973V60.4417H23.1351V58.2795ZM27.4595 58.2795H29.6216V60.4417H27.4595V58.2795ZM36.1081 58.2795H49.0811V60.4417H36.1081V58.2795ZM51.2432 58.2795H59.8919V60.4417H51.2432V58.2795ZM75.027 58.2795H79.3513V60.4417H75.027V58.2795ZM81.5135 58.2795H83.6757V60.4417H81.5135V58.2795ZM85.8378 58.2795H88V60.4417H85.8378V58.2795ZM8 60.4417H14.4865V62.6039H8V60.4417ZM16.6486 60.4417H18.8108V62.6039H16.6486V60.4417ZM20.973 60.4417H27.4595V62.6039H20.973V60.4417ZM29.6216 60.4417H31.7838V62.6039H29.6216V60.4417ZM33.9459 60.4417H36.1081V62.6039H33.9459V60.4417ZM42.5946 60.4417H46.9189V62.6039H42.5946V60.4417ZM51.2432 60.4417H53.4054V62.6039H51.2432V60.4417ZM55.5676 60.4417H57.7297V62.6039H55.5676V60.4417ZM66.3784 60.4417H68.5405V62.6039H66.3784V60.4417ZM70.7027 60.4417H77.1892V62.6039H70.7027V60.4417ZM79.3513 60.4417H85.8378V62.6039H79.3513V60.4417ZM8 62.6039H12.3243V64.766H8V62.6039ZM16.6486 62.6039H18.8108V64.766H16.6486V62.6039ZM23.1351 62.6039H27.4595V64.766H23.1351V62.6039ZM29.6216 62.6039H31.7838V64.766H29.6216V62.6039ZM33.9459 62.6039H36.1081V64.766H33.9459V62.6039ZM40.4324 62.6039H44.7568V64.766H40.4324V62.6039ZM46.9189 62.6039H49.0811V64.766H46.9189V62.6039ZM53.4054 62.6039H59.8919V64.766H53.4054V62.6039ZM62.0541 62.6039H72.8649V64.766H62.0541V62.6039ZM77.1892 62.6039H79.3513V64.766H77.1892V62.6039ZM12.3243 64.766H16.6486V66.9282H12.3243V64.766ZM18.8108 64.766H25.2973V66.9282H18.8108V64.766ZM29.6216 64.766H33.9459V66.9282H29.6216V64.766ZM38.2703 64.766H42.5946V66.9282H38.2703V64.766ZM44.7568 64.766H49.0811V66.9282H44.7568V64.766ZM51.2432 64.766H53.4054V66.9282H51.2432V64.766ZM55.5676 64.766H62.0541V66.9282H55.5676V64.766ZM64.2162 64.766H70.7027V66.9282H64.2162V64.766ZM75.027 64.766H77.1892V66.9282H75.027V64.766ZM79.3513 64.766H83.6757V66.9282H79.3513V64.766ZM16.6486 66.9282H18.8108V69.0903H16.6486V66.9282ZM29.6216 66.9282H42.5946V69.0903H29.6216V66.9282ZM44.7568 66.9282H49.0811V69.0903H44.7568V66.9282ZM53.4054 66.9282H57.7297V69.0903H53.4054V66.9282ZM59.8919 66.9282H62.0541V69.0903H59.8919V66.9282ZM70.7027 66.9282H75.027V69.0903H70.7027V66.9282ZM77.1892 66.9282H79.3513V69.0903H77.1892V66.9282ZM81.5135 66.9282H83.6757V69.0903H81.5135V66.9282ZM85.8378 66.9282H88V69.0903H85.8378V66.9282ZM8 69.0903H14.4865V71.2525H8V69.0903ZM20.973 69.0903H23.1351V71.2525H20.973V69.0903ZM29.6216 69.0903H36.1081V71.2525H29.6216V69.0903ZM44.7568 69.0903H46.9189V71.2525H44.7568V69.0903ZM49.0811 69.0903H51.2432V71.2525H49.0811V69.0903ZM55.5676 69.0903H62.0541V71.2525H55.5676V69.0903ZM64.2162 69.0903H66.3784V71.2525H64.2162V69.0903ZM68.5405 69.0903H79.3513V71.2525H68.5405V69.0903ZM81.5135 69.0903H83.6757V71.2525H81.5135V69.0903ZM85.8378 69.0903H88V71.2525H85.8378V69.0903ZM25.2973 71.2525H29.6216V73.4147H25.2973V71.2525ZM31.7838 71.2525H33.9459V73.4147H31.7838V71.2525ZM36.1081 71.2525H38.2703V73.4147H36.1081V71.2525ZM40.4324 71.2525H46.9189V73.4147H40.4324V71.2525ZM51.2432 71.2525H59.8919V73.4147H51.2432V71.2525ZM62.0541 71.2525H66.3784V73.4147H62.0541V71.2525ZM68.5405 71.2525H70.7027V73.4147H68.5405V71.2525ZM77.1892 71.2525H79.3513V73.4147H77.1892V71.2525ZM83.6757 71.2525H88V73.4147H83.6757V71.2525ZM8 73.4147H23.1351V75.5768H8V73.4147ZM25.2973 73.4147H27.4595V75.5768H25.2973V73.4147ZM29.6216 73.4147H31.7838V75.5768H29.6216V73.4147ZM33.9459 73.4147H38.2703V75.5768H33.9459V73.4147ZM40.4324 73.4147H44.7568V75.5768H40.4324V73.4147ZM46.9189 73.4147H49.0811V75.5768H46.9189V73.4147ZM57.7297 73.4147H66.3784V75.5768H57.7297V73.4147ZM68.5405 73.4147H70.7027V75.5768H68.5405V73.4147ZM72.8649 73.4147H75.027V75.5768H72.8649V73.4147ZM77.1892 73.4147H79.3513V75.5768H77.1892V73.4147ZM8 75.5768H10.1622V77.739H8V75.5768ZM20.973 75.5768H23.1351V77.739H20.973V75.5768ZM31.7838 75.5768H36.1081V77.739H31.7838V75.5768ZM38.2703 75.5768H40.4324V77.739H38.2703V75.5768ZM44.7568 75.5768H49.0811V77.739H44.7568V75.5768ZM51.2432 75.5768H55.5676V77.739H51.2432V75.5768ZM57.7297 75.5768H62.0541V77.739H57.7297V75.5768ZM64.2162 75.5768H70.7027V77.739H64.2162V75.5768ZM77.1892 75.5768H88V77.739H77.1892V75.5768ZM8 77.739H10.1622V79.9012H8V77.739ZM12.3243 77.739H18.8108V79.9012H12.3243V77.739ZM20.973 77.739H23.1351V79.9012H20.973V77.739ZM25.2973 77.739H27.4595V79.9012H25.2973V77.739ZM29.6216 77.739H31.7838V79.9012H29.6216V77.739ZM33.9459 77.739H36.1081V79.9012H33.9459V77.739ZM44.7568 77.739H46.9189V79.9012H44.7568V77.739ZM49.0811 77.739H62.0541V79.9012H49.0811V77.739ZM68.5405 77.739H83.6757V79.9012H68.5405V77.739ZM8 79.9012H10.1622V82.0633H8V79.9012ZM12.3243 79.9012H18.8108V82.0633H12.3243V79.9012ZM20.973 79.9012H23.1351V82.0633H20.973V79.9012ZM29.6216 79.9012H31.7838V82.0633H29.6216V79.9012ZM33.9459 79.9012H36.1081V82.0633H33.9459V79.9012ZM40.4324 79.9012H44.7568V82.0633H40.4324V79.9012ZM53.4054 79.9012H59.8919V82.0633H53.4054V79.9012ZM66.3784 79.9012H68.5405V82.0633H66.3784V79.9012ZM70.7027 79.9012H77.1892V82.0633H70.7027V79.9012ZM83.6757 79.9012H88V82.0633H83.6757V79.9012ZM8 82.0633H10.1622V84.2255H8V82.0633ZM12.3243 82.0633H18.8108V84.2255H12.3243V82.0633ZM20.973 82.0633H23.1351V84.2255H20.973V82.0633ZM36.1081 82.0633H44.7568V84.2255H36.1081V82.0633ZM57.7297 82.0633H59.8919V84.2255H57.7297V82.0633ZM62.0541 82.0633H66.3784V84.2255H62.0541V82.0633ZM68.5405 82.0633H75.027V84.2255H68.5405V82.0633ZM81.5135 82.0633H83.6757V84.2255H81.5135V82.0633ZM8 84.2255H10.1622V86.3876H8V84.2255ZM20.973 84.2255H23.1351V86.3876H20.973V84.2255ZM27.4595 84.2255H29.6216V86.3876H27.4595V84.2255ZM31.7838 84.2255H36.1081V86.3876H31.7838V84.2255ZM38.2703 84.2255H42.5946V86.3876H38.2703V84.2255ZM44.7568 84.2255H49.0811V86.3876H44.7568V84.2255ZM53.4054 84.2255H55.5676V86.3876H53.4054V84.2255ZM64.2162 84.2255H68.5405V86.3876H64.2162V84.2255ZM70.7027 84.2255H72.8649V86.3876H70.7027V84.2255ZM77.1892 84.2255H79.3513V86.3876H77.1892V84.2255ZM81.5135 84.2255H85.8378V86.3876H81.5135V84.2255ZM8 86.3876H23.1351V88.5498H8V86.3876ZM25.2973 86.3876H29.6216V88.5498H25.2973V86.3876ZM31.7838 86.3876H33.9459V88.5498H31.7838V86.3876ZM36.1081 86.3876H40.4324V88.5498H36.1081V86.3876ZM44.7568 86.3876H51.2432V88.5498H44.7568V86.3876ZM53.4054 86.3876H57.7297V88.5498H53.4054V86.3876ZM59.8919 86.3876H62.0541V88.5498H59.8919V86.3876ZM75.027 86.3876H77.1892V88.5498H75.027V86.3876ZM81.5135 86.3876H88V88.5498H81.5135V86.3876Z" fill="#01011B"/>
</svg>
